<?xml version="1.0" encoding="UTF-8" standalone="no"?>
<!-- Created with Inkscape (http://www.inkscape.org/) -->

<svg
   xmlns:dc="http://purl.org/dc/elements/1.1/"
   xmlns:cc="http://creativecommons.org/ns#"
   xmlns:rdf="http://www.w3.org/1999/02/22-rdf-syntax-ns#"
   xmlns:svg="http://www.w3.org/2000/svg"
   xmlns="http://www.w3.org/2000/svg"
   xmlns:sodipodi="http://sodipodi.sourceforge.net/DTD/sodipodi-0.dtd"
   xmlns:inkscape="http://www.inkscape.org/namespaces/inkscape"
   width="75mm"
   height="75mm"
   viewBox="0 0 75 75"
   version="1.1"
   id="svg8"
   inkscape:version="0.92.5 (2060ec1f9f, 2020-04-08)"
   sodipodi:docname="homer.svg">
  <defs
     id="defs2" />
  <sodipodi:namedview
     id="base"
     pagecolor="#ffffff"
     bordercolor="#666666"
     borderopacity="1.0"
     inkscape:pageopacity="0.0"
     inkscape:pageshadow="2"
     inkscape:zoom="3.8821106"
     inkscape:cx="219.62616"
     inkscape:cy="203.05629"
     inkscape:document-units="mm"
     inkscape:current-layer="layer1"
     showgrid="false"
     inkscape:window-width="1366"
     inkscape:window-height="705"
     inkscape:window-x="-8"
     inkscape:window-y="-8"
     inkscape:window-maximized="1"
     width="75mm" />
  <metadata
     id="metadata5">
    <rdf:RDF>
      <cc:Work
         rdf:about="">
        <dc:format>image/svg+xml</dc:format>
        <dc:type
           rdf:resource="http://purl.org/dc/dcmitype/StillImage" />
        <dc:title></dc:title>
      </cc:Work>
    </rdf:RDF>
  </metadata>
  <g
     inkscape:label="Capa 1"
     inkscape:groupmode="layer"
     id="layer1"
     transform="translate(0,-222)">
    <path
       style="fill:#000000;stroke-width:0.0970472"
       d="m 44.896481,255.79971 c -1.667484,-3.31343 -0.771434,-6.40767 1.994503,-6.88738 0.438074,-0.076 0.44376,-0.0842 0.627835,-0.90643 0.18314,-0.81806 0.586927,-1.76998 0.840941,-1.9825 0.104532,-0.0875 0.337876,-0.16982 0.518452,-0.18295 0.18059,-0.0131 0.346183,-0.0734 0.367995,-0.13387 0.08112,-0.22503 -0.189371,-2.23309 -0.408986,-3.03603 l -0.22742,-0.83146 -0.42461,-0.12948 c -0.235379,-0.0718 -0.561519,-0.27362 -0.731768,-0.45289 -0.271212,-0.28558 -0.307129,-0.3907 -0.307129,-0.8989 0,-0.50919 0.03401,-0.60828 0.295269,-0.85988 l 0.295282,-0.28439 -0.241441,-0.54472 c -0.13868,-0.31295 -0.436095,-0.72983 -0.698945,-0.97978 -0.526368,-0.50051 -0.548446,-0.45811 -0.30798,0.59142 0.08223,0.35924 0.145941,0.73713 0.141412,0.83977 -0.01115,0.26864 -0.292161,-0.57548 -0.356372,-1.07308 -0.02983,-0.23094 -0.08948,-0.47836 -0.132686,-0.54979 -0.0814,-0.13478 -0.02495,-0.47664 0.07875,-0.47664 0.03247,0 0.208214,0.1336 0.390435,0.29689 0.182234,0.16328 0.351075,0.27863 0.375201,0.25632 0.02411,-0.0224 -0.161203,-0.41835 -0.411857,-0.88009 -1.899449,-3.49889 -2.202049,-5.03786 -1.326835,-6.74796 0.266264,-0.52026 0.292774,-0.64661 0.225107,-1.07309 -0.09589,-0.604 -0.09575,-0.68709 10e-4,-1.08993 0.187656,-0.7811 0.97024,-1.58344 1.686244,-1.72883 0.167085,-0.0339 0.328273,-0.1207 0.358225,-0.19286 0.02997,-0.0721 0.122512,-0.13116 0.205845,-0.13116 0.0931,0 0.129063,0.0538 0.09324,0.13996 -0.03498,0.0843 -5.02e-4,0.13997 0.08655,0.13997 0.312119,0 1.12393,0.30982 1.368215,0.52215 0.1453,0.12629 0.299325,0.19014 0.353263,0.14646 0.116798,-0.0946 1.078802,-0.29536 1.41548,-0.29536 0.299297,0 0.306976,-0.0881 0.0354,-0.40732 -0.114985,-0.13522 -0.162415,-0.24586 -0.105229,-0.24586 0.05714,0 0.230794,0.14696 0.385822,0.32659 0.261149,0.30257 0.322977,0.32659 0.841024,0.32659 1.213313,0 2.592651,0.53985 3.44955,1.35009 0.6195,0.58577 1.063609,1.27404 1.54613,2.39616 0.27701,0.64422 0.467663,0.94414 0.728283,1.14563 0.455481,0.35217 0.664797,0.7985 0.529156,1.12833 -0.128645,0.31289 -0.14707,0.25893 0.208144,0.61048 0.439788,0.43524 0.624964,0.89063 0.625354,1.53784 1.95e-4,0.39854 -0.06537,0.68253 -0.223727,0.96963 -0.220535,0.39964 -0.221302,0.41406 -0.0492,0.91994 0.128366,0.37748 0.151001,0.60068 0.08502,0.84066 -0.08669,0.31518 -0.0676,0.3476 0.538397,0.91753 0.647863,0.6093 1.017043,1.17114 1.24877,1.90052 0.07331,0.23094 0.260173,0.53123 0.415104,0.66729 0.614566,0.53974 0.168618,1.15356 -1.181354,1.62611 l -0.779002,0.27268 -0.03303,0.4199 c -0.02676,0.34011 -0.09812,0.4731 -0.375605,0.69984 -0.188437,0.15396 -0.493155,0.57018 -0.677146,0.92493 -0.397529,0.76642 -0.348747,0.91785 0.319074,0.99055 0.638218,0.0694 0.921501,0.27621 1.385916,1.01134 0.370226,0.58606 0.449935,0.65578 0.908246,0.79437 0.942324,0.28495 3.008522,1.15083 3.573623,1.4976 0.609214,0.37385 1.178232,0.9152 1.178232,1.12096 0,0.0704 0.238445,0.30767 0.529894,0.52725 1.274611,0.96027 2.19317,2.0066 2.817367,3.20924 0.366922,0.70696 0.410812,0.87064 0.461503,1.72102 0.04781,0.80201 0.03345,0.93978 -0.0977,0.93978 -0.122372,0 -0.143265,-0.0854 -0.102441,-0.41993 0.222904,-1.82828 -1.630717,-4.42605 -4.279425,-5.99739 -0.497364,-0.29505 -0.520487,-0.29934 -0.9175,-0.16984 -0.661968,0.21592 -1.843391,0.96707 -1.843391,1.17203 0,0.0305 0.241609,0.21718 0.536905,0.41499 0.295311,0.19779 0.732534,0.60666 0.971634,0.90858 0.339563,0.42879 0.46411,0.52641 0.568921,0.446 0.07387,-0.0567 0.182582,-0.0753 0.24172,-0.0415 0.06258,0.0358 -0.07861,0.20473 -0.338294,0.40462 -0.737329,0.56756 -1.724322,1.84819 -2.224237,2.88592 -0.12516,0.25979 -0.25538,0.39657 -0.377571,0.39657 -0.102581,0 -0.186541,-0.0214 -0.186541,-0.0477 0,-0.13683 1.418321,-2.14208 1.92016,-2.71476 l 0.580892,-0.6629 -0.280132,-0.41018 c -0.529937,-0.77594 -1.675513,-1.57507 -2.529346,-1.76445 -0.668031,-0.14815 -1.485305,-0.06 -2.09608,0.22616 -0.260439,0.12205 -0.836551,0.51093 -1.280255,0.86425 -0.443705,0.35334 -0.988401,0.76459 -1.210456,0.91391 -0.222054,0.14932 -0.585408,0.42912 -0.807462,0.62177 -0.718165,0.62312 -1.391617,0.72189 -1.875002,0.275 -0.162276,-0.15001 -0.295046,-0.33897 -0.295046,-0.4199 0,-0.10743 -0.10063,-0.14715 -0.372246,-0.14715 -0.478075,0 -1.00712,-0.32902 -1.163277,-0.72346 -0.142944,-0.36109 -0.274014,-0.34515 -1.038242,0.12625 -1.169313,0.72129 -2.168376,1.81343 -2.915001,3.18662 -0.398017,0.73201 -0.671808,0.92544 -0.396233,0.27993 0.531581,-1.24514 1.471382,-2.3606 2.837898,-3.36831 0.371355,-0.27385 0.856872,-0.56275 1.078926,-0.64202 0.222055,-0.0793 0.418422,-0.21188 0.43636,-0.29471 0.0262,-0.12094 -0.05784,-0.15059 -0.42737,-0.15059 -0.36518,0 -0.527651,-0.0559 -0.788159,-0.27108 -0.276676,-0.22854 -0.326433,-0.33227 -0.317109,-0.66102 0.007,-0.24084 0.09492,-0.49475 0.230264,-0.66403 0.12056,-0.15076 0.188241,-0.32041 0.150401,-0.37702 -0.132687,-0.19842 -1.31032,-0.61324 -2.060026,-0.72561 -1.702412,-0.25517 -3.431667,0.46656 -4.082792,1.704 -0.651696,1.23854 -0.477113,3.23837 0.449377,5.14742 0.335465,0.69124 0.338044,0.69955 0.217636,0.69955 -0.04669,0 -0.248786,-0.32543 -0.448945,-0.72317 z m 10.006608,-2.02238 c 0.152784,-0.073 0.470632,-0.32622 0.706345,-0.56262 0.235699,-0.2364 0.471204,-0.40543 0.523344,-0.37564 0.05213,0.0297 0.187643,-0.0258 0.301109,-0.12352 0.176506,-0.15204 0.190262,-0.21671 0.09519,-0.44783 -0.243588,-0.5923 -0.732228,-0.7907 -1.485543,-0.60317 -0.835895,0.20808 -1.507466,1.17255 -1.236923,1.77639 0.209539,0.46768 0.582482,0.58211 1.096446,0.33639 z m -1.232909,-1.26687 c 0.292788,-0.56567 0.696714,-0.89813 1.334779,-1.09866 l 0.531832,-0.16711 -0.205677,-0.24174 c -0.433461,-0.50945 -1.318194,-0.68835 -1.976315,-0.39963 -0.644518,0.28275 -1.161896,1.00225 -1.161896,1.6158 0,0.47969 0.367493,0.78076 0.902155,0.73912 0.313499,-0.0245 0.384692,-0.0799 0.575122,-0.44778 z m 3.787189,-0.58912 c 1.303545,-0.97316 2.009235,-1.27711 2.96505,-1.27711 0.407453,0 0.551596,-0.0344 0.551596,-0.13161 0,-0.33788 -1.785536,-2.92144 -1.927185,-2.78852 -0.04349,0.0408 -0.194945,0.44495 -0.336663,0.89817 -0.141704,0.45322 -0.28345,0.86263 -0.314977,0.90978 -0.117076,0.17501 -0.32844,0.0714 -1.014966,-0.49744 -1.315406,-1.0899 -1.906361,-1.53666 -2.244432,-1.69683 -0.185566,-0.0879 -0.345445,-0.14624 -0.355271,-0.12963 -0.0098,0.0166 -0.128505,0.34513 -0.263867,0.73004 -0.135334,0.38492 -0.352929,0.94679 -0.483622,1.24863 l -0.237608,0.54878 0.263518,0.25427 c 0.144924,0.13986 0.445308,0.30976 0.667501,0.37755 0.376484,0.11492 0.999092,0.63756 0.999092,0.83876 0,0.0489 0.18714,0.19811 0.415871,0.33159 0.228883,0.13359 0.46574,0.36487 0.526786,0.5144 0.06105,0.14941 0.14222,0.27167 0.180479,0.27167 0.03819,0 0.312161,-0.18112 0.608698,-0.4025 z m -5.236145,-0.68059 c 0.207573,-0.32563 0.873443,-0.80103 1.259878,-0.8995 0.236661,-0.0603 0.415007,-0.15325 0.396317,-0.20658 -0.01868,-0.0533 -0.229497,-0.19756 -0.468486,-0.32052 -0.780884,-0.40177 -2.129531,-0.20091 -2.571939,0.38303 -0.08697,0.1148 -0.158067,0.37853 -0.158067,0.58617 0,0.30763 0.04906,0.40507 0.265219,0.52631 0.310266,0.17405 1.151137,0.12868 1.277078,-0.069 z m 10.251281,-0.70267 c 0.521839,-0.42896 1.319058,-0.79365 1.933498,-0.88448 0.221887,-0.0328 0.403439,-0.0891 0.403439,-0.12522 0,-0.12469 -0.861234,-0.63144 -1.715848,-1.00958 -0.884733,-0.39147 -2.532105,-0.97683 -2.592344,-0.92114 -0.01868,0.0173 0.03457,0.21128 0.11847,0.43103 0.209873,0.54993 0.19673,0.74931 -0.04934,0.74931 -0.111083,0 -0.201859,0.0375 -0.201859,0.0833 0,0.0458 0.232299,0.49724 0.516222,1.00309 0.677968,1.20789 0.849415,1.28063 1.587859,0.6736 z m 2.841604,-0.63036 c 0,-0.10349 -0.310516,-0.22058 -0.39003,-0.14707 -0.03206,0.0296 0.0084,0.093 0.09018,0.14073 0.18873,0.11037 0.299882,0.11271 0.299882,0.006 z m -13.46371,-0.46959 c 0.454911,-0.079 1.138523,-0.0208 1.570813,0.13367 0.128226,0.0459 0.214807,-0.0366 0.362239,-0.34469 0.285931,-0.5976 0.759448,-1.94681 0.701913,-1.99999 -0.02746,-0.0253 -0.633897,-0.0865 -1.347769,-0.1361 -1.507355,-0.10459 -2.901494,-0.29885 -3.972658,-0.55363 l -0.756995,-0.18006 -0.170596,0.2069 c -0.208744,0.25316 -0.542927,1.17533 -0.636546,1.75651 l -0.06913,0.4292 0.924971,0.0645 c 0.981781,0.0686 1.744965,0.2826 2.323224,0.65168 0.223239,0.14249 0.394379,0.19459 0.464959,0.14158 0.06147,-0.0461 0.333946,-0.12242 0.60559,-0.16963 z m 6.689994,-1.00225 0.218472,-0.76203 -0.250599,-0.34139 c -0.277205,-0.37766 -0.663152,-1.26714 -0.663152,-1.52838 0,-0.28508 -0.10272,-0.28685 -0.574983,-0.01 -0.880775,0.5164 -2.553555,0.69808 -3.841839,0.41727 -0.916092,-0.19969 -1.714133,-0.60646 -2.408018,-1.22742 -1.750721,-1.5667 -1.79889,-4.00017 -0.107041,-5.40647 0.965919,-0.80288 1.802149,-1.03917 4.726376,-1.33552 1.952509,-0.19786 2.812921,-0.84154 2.415782,-1.80724 -0.176102,-0.42822 -0.384358,-0.53384 -1.050215,-0.53266 -0.342991,6.5e-4 -0.873429,0.0631 -1.178747,0.13886 -0.305318,0.0757 -0.678442,0.13825 -0.82915,0.13886 -0.176032,7.4e-4 -0.315422,0.0726 -0.389835,0.20119 -0.233692,0.40369 -0.956442,1.03604 -1.451674,1.2701 -0.692533,0.32732 -1.778107,0.33804 -2.555562,0.0252 -1.147961,-0.46189 -1.945849,-1.75586 -1.675918,-2.71791 0.170903,-0.60909 0.390462,-0.96891 0.851101,-1.39478 0.601605,-0.55618 1.237384,-0.80245 2.125783,-0.82344 0.640197,-0.0151 0.833554,0.0211 1.36455,0.25593 0.340273,0.15046 0.651347,0.32244 0.691278,0.38217 0.04767,0.0713 0.187852,-0.0159 0.40822,-0.25388 0.184576,-0.19937 0.612517,-0.49893 0.950964,-0.6657 0.526007,-0.25919 0.716869,-0.30293 1.314361,-0.30119 0.501852,10e-4 0.813233,0.0559 1.104125,0.19314 0.222835,0.10508 0.429669,0.19108 0.459649,0.19108 0.02997,0 0.0545,-0.1325 0.0545,-0.29445 0,-0.32375 -0.393431,-0.87338 -0.686776,-0.95945 -0.119864,-0.0352 -0.261652,-0.28488 -0.414241,-0.72948 -0.478437,-1.39402 -1.239306,-2.43711 -2.35978,-3.23501 -0.983732,-0.70052 -2.937732,-0.94308 -4.565857,-0.56677 -0.965893,0.22323 -2.574226,0.88259 -2.949762,1.20926 l -0.227127,0.19758 0.201886,0.36587 c 0.227254,0.41182 0.251979,0.55993 0.09352,0.55993 -0.05965,0 -0.184534,-0.16754 -0.277554,-0.3723 -0.0931,-0.20477 -0.214556,-0.37094 -0.27007,-0.36928 -0.135334,0.004 -0.858112,0.87772 -0.857261,1.03619 4.04e-4,0.069 0.09087,0.25126 0.201203,0.40522 0.225999,0.3155 0.24993,0.41991 0.09617,0.41991 -0.05812,0 -0.182987,-0.12571 -0.277554,-0.27935 -0.0945,-0.15365 -0.208521,-0.27961 -0.253219,-0.27993 -0.152324,-0.001 -0.590105,1.02573 -0.675529,1.58448 -0.101466,0.66341 0.03164,1.67796 0.324287,2.47341 0.113452,0.30824 0.556836,1.23228 0.985348,2.05343 0.428527,0.82113 0.862531,1.67068 0.964471,1.88789 0.101884,0.2172 0.211015,0.37092 0.242417,0.34161 0.03136,-0.0293 0.057,-0.4972 0.057,-1.03973 0,-0.622 0.04014,-0.99904 0.108853,-1.02055 0.05979,-0.0188 0.406073,0.31666 0.769371,0.74539 0.772981,0.91219 0.927215,1.15155 0.791811,1.22891 -0.05324,0.0305 -0.382686,-0.30117 -0.732033,-0.7369 -0.349346,-0.43575 -0.66495,-0.79402 -0.701341,-0.79617 -0.03638,-0.002 -0.05296,0.42647 -0.0368,0.95252 0.01617,0.52604 -0.01254,1.00526 -0.06509,1.06493 -0.06035,0.0693 -0.03875,0.23168 0.05993,0.45011 0.125857,0.27844 0.192535,0.33044 0.360567,0.28114 0.260759,-0.0766 0.807226,0.0304 0.807226,0.15783 0,0.0592 -0.133941,0.073 -0.347939,0.0359 -0.427774,-0.0742 -1.002102,0.12963 -1.166775,0.41409 -0.300454,0.51901 -0.07415,1.40289 0.41969,1.63896 0.310084,0.14825 0.892036,0.20202 1.072194,0.0991 0.06035,-0.0345 0.137007,-0.0222 0.170081,0.0274 0.03317,0.0495 -0.02732,0.13349 -0.134359,0.18646 -0.191155,0.0946 -0.191294,0.10632 -0.007,0.65213 0.10286,0.30569 0.213525,0.75784 0.245804,1.00478 0.03234,0.24693 0.09868,0.7009 0.147614,1.00884 0.04892,0.30793 0.09269,0.90439 0.09742,1.32546 l 0.0084,0.76559 0.378491,0.0545 c 0.208174,0.0299 0.62831,0.0945 0.933627,0.14344 0.611375,0.0981 2.004497,0.23423 3.330774,0.32558 1.127011,0.0777 1.397735,0.23272 3.633554,2.08121 0.294252,0.24329 0.475956,0.33695 0.515971,0.26601 0.03401,-0.0602 0.160088,-0.45242 0.280244,-0.87154 z m -10.424444,-7.64367 c -0.03373,-0.0811 -0.06133,-0.23327 -0.06133,-0.338 0,-0.15334 -0.02774,-0.16915 -0.142415,-0.0811 -0.08404,0.0645 -0.166303,0.0735 -0.200743,0.022 -0.100909,-0.15086 0.215322,-0.30902 0.555888,-0.27808 0.179768,0.0163 0.347075,0.0866 0.371801,0.15613 0.03247,0.0913 -0.01436,0.10902 -0.168855,0.0637 -0.237887,-0.0698 -0.262167,0.006 -0.115403,0.36367 0.07596,0.18464 0.0669,0.23935 -0.03972,0.23935 -0.07596,0 -0.165676,-0.0664 -0.199364,-0.1476 z m 12.311195,7.271 c -0.217135,-0.59297 -0.788508,-1.55747 -0.91665,-1.54736 -0.05547,0.005 -0.164018,0.1953 -0.241135,0.42427 l -0.140199,0.4163 0.423857,0.54722 c 0.69815,0.90135 1.177842,0.98891 0.874127,0.15957 z m -1.201828,-1.77304 c 0.0616,-0.2345 -0.12739,-0.35144 -0.698903,-0.43264 -0.274529,-0.039 -0.378504,-0.0202 -0.378504,0.0686 0,0.22449 0.295812,0.90109 0.522814,1.19583 l 0.224257,0.29116 0.138679,-0.46063 c 0.07624,-0.25335 0.162527,-0.55139 0.191657,-0.66232 z m -9.959443,-0.0811 c 0,-0.19061 -0.240536,-0.26598 -0.580586,-0.18194 l -0.277345,0.0686 0.302795,0.12394 c 0.402923,0.16492 0.555136,0.16202 0.555136,-0.0111 z m 6.283574,-0.26729 c -0.0315,-0.0471 0.06453,-0.0557 0.219963,-0.0195 0.161384,0.0375 0.251853,0.0282 0.218055,-0.0224 -0.03178,-0.0476 0.03512,-0.1089 0.1487,-0.13636 0.16937,-0.0409 0.185092,-0.0261 0.08739,0.0827 -0.14615,0.16282 -0.08572,0.16652 0.279408,0.0171 0.370643,-0.15171 0.509866,-0.27977 0.458631,-0.42184 -0.023,-0.0637 0.007,-0.11577 0.0676,-0.11577 0.06007,0 0.10941,0.0445 0.10941,0.0988 0,0.0543 0.0485,0.0712 0.107738,0.0372 0.05938,-0.0339 0.08432,-0.11823 0.05561,-0.18737 -0.0354,-0.0852 3.07e-4,-0.10717 0.110665,-0.068 0.108435,0.0385 0.138401,0.0213 0.0899,-0.0514 -0.04014,-0.06 -0.02216,-0.10914 0.03986,-0.10914 0.06202,0 0.08446,-0.0424 0.0499,-0.0942 -0.09756,-0.14593 0.02704,-0.40697 0.257777,-0.5402 0.193287,-0.1116 0.200702,-0.10632 0.09854,0.0702 -0.06077,0.10496 -0.154332,0.19088 -0.20788,0.19088 -0.05352,0 -0.09742,0.0629 -0.09742,0.13997 0,0.25019 0.150526,0.14856 0.396484,-0.26768 0.132547,-0.22421 0.214082,-0.4722 0.181328,-0.55111 -0.03345,-0.0806 0.02578,-0.21486 0.135474,-0.30665 0.114428,-0.0957 0.195057,-0.11836 0.195057,-0.0546 0,0.0799 0.05338,0.0778 0.201859,-0.007 0.111083,-0.0641 0.201873,-0.15091 0.201873,-0.19292 0,-0.042 -0.05254,-0.0463 -0.116798,-0.01 -0.08,0.0457 -0.09896,0.004 -0.05993,-0.13446 0.03136,-0.11061 0.01575,-0.20121 -0.03457,-0.20121 -0.05031,0 -0.09143,-0.0658 -0.09143,-0.14626 0,-0.0957 -0.06091,-0.12932 -0.176631,-0.0972 -0.601186,0.16696 -2.808377,0.35882 -4.112995,0.35751 -1.273551,-0.001 -1.663387,-0.0375 -2.454738,-0.22799 -0.880384,-0.21194 -0.937654,-0.21555 -0.892608,-0.0563 0.02969,0.10521 -0.0056,0.1702 -0.0938,0.1702 -0.210723,0 -0.177063,-0.49916 0.05115,-0.75948 0.106205,-0.12119 0.226278,-0.18982 0.266725,-0.15257 0.04042,0.0372 0.01937,0.128 -0.04669,0.20165 -0.148924,0.1659 -0.112198,0.18679 0.697982,0.39733 0.900817,0.23408 4.004407,0.23509 5.60081,0.001 1.208908,-0.17664 2.449552,-0.46902 2.927042,-0.68979 0.456499,-0.21107 0.857917,-0.59547 0.857917,-0.82153 0,-0.24322 -0.344427,-0.55511 -0.509114,-0.46103 -0.08154,0.0466 -0.0984,0.01 -0.05422,-0.11848 0.03512,-0.10226 0.0098,-0.30701 -0.05519,-0.45492 -0.06551,-0.14791 -0.130595,-0.32075 -0.144812,-0.3841 -0.0768,-0.34303 -0.311129,-0.683 -0.448206,-0.65033 -0.08934,0.0213 -0.310098,-0.14943 -0.537268,-0.41565 -0.212033,-0.24849 -0.342628,-0.4518 -0.290223,-0.4518 0.05241,0 0.20335,0.14667 0.335409,0.32595 0.28246,0.38346 0.495065,0.4458 0.240842,0.0707 -0.211447,-0.31204 -0.843463,-0.84589 -1.085755,-0.9171 -0.09714,-0.0285 -0.176632,-0.0911 -0.176632,-0.13895 0,-0.15523 -0.210569,-0.0928 -0.639556,0.18966 -0.54032,0.35574 -1.343783,0.54692 -2.792139,0.66432 -2.877508,0.23325 -4.246866,0.89183 -4.964208,2.38748 -0.577856,1.2048 -0.06495,3.10691 1.053671,3.90783 0.211461,0.1514 0.507901,0.3635 0.658762,0.47134 0.150847,0.10779 0.33736,0.17587 0.414491,0.15119 0.09436,-0.0302 0.113731,-0.005 0.05909,0.0764 -0.05826,0.0871 -0.03373,0.10447 0.08683,0.0617 0.09241,-0.0328 0.167948,-0.0189 0.167948,0.0307 0,0.0498 0.09352,0.0903 0.207824,0.0903 0.126275,0 0.180716,0.0406 0.138819,0.10325 -0.04809,0.072 0.03415,0.0844 0.271617,0.041 0.24933,-0.0456 0.300063,-0.0365 0.189259,0.034 -0.110665,0.0704 -0.04293,0.0825 0.252327,0.0446 0.225873,-0.029 0.352399,-0.0174 0.287199,0.0259 -0.06551,0.0436 0.272843,0.0777 0.77259,0.0777 0.498131,0 0.864538,-0.0368 0.833234,-0.0836 z m 1.105728,-0.37355 c 0.07164,-0.0718 0.146052,-0.11664 0.165495,-0.0996 0.05993,0.0526 -0.09185,0.23008 -0.196674,0.23008 -0.0545,0 -0.04042,-0.0588 0.03122,-0.13056 z m 4.431484,-4.23177 c -0.007,-0.11554 -0.05714,-0.20995 -0.112617,-0.20995 -0.05547,0 -0.100908,-0.051 -0.100908,-0.11332 0,-0.074 0.05589,-0.0616 0.161105,0.0356 0.08864,0.0819 0.139237,0.22738 0.112616,0.32326 -0.04028,0.14481 -0.05045,0.13877 -0.06021,-0.0356 z m -0.605591,-0.83217 c -0.007,-0.06 -0.04112,-0.18593 -0.07708,-0.27994 -0.05073,-0.13261 -0.03721,-0.14701 0.05993,-0.0642 0.06885,0.0588 0.103557,0.18467 0.07708,0.27994 -0.02648,0.0952 -0.05352,0.12415 -0.05993,0.0642 z m -0.297958,-0.77668 c -0.07387,-0.15432 -0.111362,-0.33311 -0.08335,-0.39729 0.02801,-0.0642 0.0545,-0.0306 0.05896,0.0746 0.0042,0.10521 0.05854,0.238 0.120282,0.29509 0.06174,0.0571 0.09575,0.1498 0.0754,0.206 -0.02021,0.0562 -0.09728,-0.0241 -0.171182,-0.1784 z m -1.416064,-1.5957 c -0.272508,-0.204 -0.177872,-0.22973 0.17673,-0.0481 0.132407,0.0678 0.200297,0.14646 0.150888,0.17471 -0.04948,0.0283 -0.196841,-0.0288 -0.327618,-0.12669 z m -0.45091,-0.2402 c -0.03707,-0.0342 -0.06732,-0.10557 -0.06732,-0.15863 0,-0.0585 0.04697,-0.053 0.119446,0.014 0.06565,0.0607 0.09603,0.13211 0.06732,0.15862 -0.02871,0.0265 -0.08237,0.0202 -0.119446,-0.014 z m 0.689704,5.00773 c 0.03429,-0.0514 0.01422,-0.0933 -0.04446,-0.0933 -0.05882,0 -0.106902,0.042 -0.106902,0.0933 0,0.0514 0.02007,0.0933 0.04446,0.0933 0.02453,0 0.07261,-0.042 0.106902,-0.0933 z m -6.168587,-5.33845 c 0.561143,-0.15262 1.490727,-1.01202 1.655805,-1.53079 0.149969,-0.47127 0.15599,-1.08606 0.01519,-1.55469 -0.228536,-0.76081 -1.260798,-1.44717 -2.308616,-1.53501 -1.10602,-0.0927 -2.117739,0.39834 -2.719317,1.31989 -0.782389,1.19854 -0.23864,2.61528 1.242444,3.23719 0.481183,0.20205 1.493125,0.2324 2.114464,0.0634 z m -1.586381,-1.72214 c -0.120003,-0.11086 -0.07122,-0.47178 0.0793,-0.58726 0.176423,-0.13537 0.518355,-0.052 0.600754,0.14656 0.135055,0.32548 -0.417363,0.68353 -0.680017,0.4407 z m 7.664624,1.31614 c 0.08391,-0.309 -0.241288,-1.01345 -0.408554,-0.88511 -0.12056,0.0924 -0.128923,0.84658 -0.01115,1.02242 0.122094,0.18272 0.353612,0.10706 0.419955,-0.13731 z m -0.218375,-1.38512 c 0.278209,-0.31771 0.31212,-0.42777 0.343228,-1.11379 0.03317,-0.73222 0.02174,-0.77892 -0.302795,-1.22601 -0.40879,-0.56329 -1.256561,-0.99434 -2.079731,-1.05744 -0.448109,-0.0344 -0.636671,0.006 -1.180741,0.25379 -0.636016,0.28947 -1.1646,0.73896 -1.1646,0.99033 0,0.0701 0.09937,0.28313 0.220758,0.47337 0.164464,0.25771 0.23202,0.54456 0.264982,1.12507 0.02439,0.42855 0.07707,0.77919 0.117216,0.77919 0.04014,0 0.499984,-0.0833 1.021907,-0.18517 1.305858,-0.25481 1.534979,-0.24426 1.931435,0.089 0.181301,0.15236 0.372386,0.26515 0.424638,0.25065 0.05227,-0.0145 0.233943,-0.18501 0.403731,-0.37892 z m -1.509599,-1.27296 c -0.136031,-0.39637 0.447357,-0.62075 0.688575,-0.26482 0.16314,0.24071 0.0098,0.45591 -0.323813,0.45591 -0.212855,0 -0.318084,-0.0551 -0.364762,-0.19109 z m -10.873556,-5.97649 c 0.449754,-0.44355 0.529895,-0.5771 0.53193,-0.88646 0.0028,-0.36141 0.109132,-0.86704 0.249093,-1.18071 0.144199,-0.32302 -0.274961,-0.16828 -0.758276,0.27994 -0.591346,0.54838 -0.870587,1.25537 -0.761497,1.92795 0.03917,0.24164 0.102302,0.42633 0.140241,0.41042 0.03791,-0.0159 0.307269,-0.26391 0.598509,-0.55114 z m 1.167402,-0.90889 c 0.232048,-0.14559 0.694429,-0.3841 1.02751,-0.53 0.333068,-0.14589 0.627626,-0.28158 0.654553,-0.30153 0.11638,-0.0862 -0.496277,-0.39984 -0.979076,-0.50114 -0.606385,-0.12725 -0.759518,-0.0592 -0.983621,0.43659 -0.151809,0.33589 -0.295087,1.1608 -0.201636,1.1608 0.03317,0 0.250223,-0.1191 0.48227,-0.26472 z"
       id="path25"
       inkscape:connector-curvature="0" />
  </g>
</svg>
